HIERARCHY
ROOT hip
{
	OFFSET 0.000000 0.000000 0.000000
	CHANNELS 6 Xposition Yposition Zposition Xrotation Zrotation Yrotation 
	JOINT abdomen
	{
		OFFSET 0.000000 3.422050 0.000000
		CHANNELS 3 Xrotation Zrotation Yrotation 
		JOINT chest
		{
			OFFSET 0.000000 8.486693 -0.684411
			CHANNELS 3 Xrotation Zrotation Yrotation 
			JOINT neck
			{
				OFFSET 0.000000 10.266162 -0.273764
				CHANNELS 3 Xrotation Zrotation Yrotation 
				JOINT head
				{
					OFFSET 0.000000 3.148285 0.000000
					CHANNELS 3 Xrotation Zrotation Yrotation 
					End Site
					{
						OFFSET 0.000000 3.148289 0.000000
					}
				}
			}
			JOINT lCollar
			{
				OFFSET 3.422053 6.707223 -0.821293
				CHANNELS 3 Yrotation Zrotation Xrotation 
				JOINT lShldr
				{
					OFFSET 3.285171 0.000000 0.000000
					CHANNELS 3 Zrotation Yrotation Xrotation 
					JOINT lForeArm
					{
						OFFSET 10.129278 0.000000 0.000000
						CHANNELS 3 Yrotation Zrotation Xrotation 
						JOINT lHand
						{
							OFFSET 8.486692 0.000000 0.000000
							CHANNELS 3 Zrotation Yrotation Xrotation 
							End Site
							{
								OFFSET 4.106464 0.000000 0.000000
							}
						}
					}
				}
			}
			JOINT rCollar
			{
				OFFSET -3.558935 6.707223 -0.821293
				CHANNELS 3 Yrotation Zrotation Xrotation 
				JOINT rShldr
				{
					OFFSET -3.148289 0.000000 0.000000
					CHANNELS 3 Zrotation Yrotation Xrotation 
					JOINT rForeArm
					{
						OFFSET -10.266159 0.000000 0.000000
						CHANNELS 3 Yrotation Zrotation Xrotation 
						JOINT rHand
						{
							OFFSET -8.349810 0.000000 0.000000
							CHANNELS 3 Zrotation Yrotation Xrotation 
							End Site
							{
								OFFSET -4.106464 0.000000 0.000000
							}
						}
					}
				}
			}
		}
	}
	JOINT lThigh
	{
		OFFSET 5.338403 -1.642589 1.368821
		CHANNELS 3 Xrotation Zrotation Yrotation 
		JOINT lShin
		{
			OFFSET -2.053232 -20.121670 0.000000
			CHANNELS 3 Xrotation Zrotation Yrotation 
			JOINT lFoot
			{
				OFFSET 0.000000 -19.300380 -1.231939
				CHANNELS 3 Xrotation Yrotation Zrotation 
				End Site
				{
					OFFSET 0.000000 -2.463878 4.653993
				}
			}
		}
	}
	JOINT rThigh
	{
		OFFSET -5.338403 -1.642589 1.368821
		CHANNELS 3 Xrotation Zrotation Yrotation 
		JOINT rShin
		{
			OFFSET 2.053232 -20.121670 0.000000
			CHANNELS 3 Xrotation Zrotation Yrotation 
			JOINT rFoot
			{
				OFFSET 0.000000 -19.300380 -1.231939
				CHANNELS 3 Xrotation Yrotation Zrotation 
				End Site
				{
					OFFSET 0.000000 -2.463878 4.653993
				}
			}
		}
	}
}
MOTION
Frames: 8
Frame Time: 0.076905
0.000000 43.528500 0.000000 0.000000 0.000000 0.000000 0.000000 0.000000 0.000000 0.000000 0.000000 0.000000 0.000000 0.000000 0.000000 0.000000 0.000000 0.000000 0.000000 0.000000 0.000000 0.000000 0.000000 0.000000 0.000000 0.000000 0.000000 0.000000 0.000000 0.000000 0.000000 0.000000 0.000000 0.000000 0.000000 0.000000 0.000000 0.000000 0.000000 0.000000 0.000000 0.000000 0.000000 0.000000 0.000000 0.000000 0.000000 0.000000 0.000000 0.000000 0.000000 0.000000 0.000000 0.000000 0.000000 0.000000 0.000000 0.000000 0.000000 0.000000 
-9.482808 4.585022 15.700528 89.996109 18.005964 129.986893 30.535683 -16.496136 -8.531331 10.399525 -8.703412 -14.477643 -0.791218 -27.178078 7.938053 -1.749153 -0.849916 29.274450 -13.185792 -22.298079 7.910061 -46.889526 -5.212101 -77.320824 -141.116577 -46.426838 -135.156662 -6.373910 17.178617 -55.243935 13.402732 -1.672972 1.571780 8.044358 13.893221 32.154495 16.601442 -18.118715 -3.758502 -9.330309 21.510170 10.059771 -43.757511 66.417809 50.235161 83.422249 10.718026 -0.005715 42.861172 -26.184824 24.848986 -33.989834 -21.765728 -20.543047 61.711033 -1.163134 -0.102159 15.660649 3.980541 9.186223 
-9.482808 4.585022 15.700528 89.996109 18.005964 129.986893 30.868797 -16.496151 -8.531201 10.399523 -8.703412 -14.477641 -1.235501 -27.178209 7.938104 -2.137961 -0.849976 29.274553 -13.254739 -22.522377 7.978926 -46.616875 -5.267169 -77.388313 -140.647705 -46.522934 -134.814209 -6.693779 17.372950 -55.234333 13.081836 -1.636291 1.595522 8.044358 13.893221 32.154495 16.601442 -18.118715 -3.758502 -9.330309 21.510170 10.059771 -43.757507 66.417809 50.235161 83.422249 10.718026 -0.005715 42.861172 -26.184824 24.848986 -33.916103 -21.906193 -20.820072 61.711033 -1.163134 -0.102159 15.643233 4.183050 8.961253 
-9.482808 4.585022 15.700528 89.996101 18.005964 129.986893 31.201954 -16.496166 -8.531072 10.399525 -8.703411 -14.477641 -1.679892 -27.178329 7.938152 -2.526841 -0.850035 29.274656 -13.323510 -22.746773 8.047619 -46.344112 -5.321923 -77.456078 -140.177139 -46.617100 -134.469971 -7.014015 17.567368 -55.225872 12.760890 -1.599738 1.619473 8.044358 13.893220 32.154495 16.601442 -18.118715 -3.758502 -9.330307 21.510166 10.059770 -43.757500 66.417809 50.235165 83.422249 10.718025 -0.005715 42.861164 -26.184824 24.848984 -33.841553 -22.046331 -21.097584 61.711033 -1.163134 -0.102159 15.626609 4.385648 8.736263 
-9.482808 4.585022 15.700528 89.996109 18.005964 129.986893 31.535151 -16.496181 -8.530943 10.399525 -8.703412 -14.477643 -2.124377 -27.178452 7.938202 -2.915784 -0.850094 29.274769 -13.392107 -22.971252 8.116134 -46.071232 -5.376359 -77.524124 -139.704865 -46.709324 -134.123978 -7.334610 17.761852 -55.218521 12.439893 -1.563315 1.643630 8.044358 13.893221 32.154495 16.601444 -18.118717 -3.758502 -9.330309 21.510172 10.059771 -43.757523 66.417831 50.235188 83.422256 10.718027 -0.005715 42.861176 -26.184824 24.848988 -33.766193 -22.186148 -21.375601 61.711033 -1.163134 -0.102159 15.610777 4.588330 8.511245 
-9.482808 4.585022 15.700528 89.996124 18.005968 129.986908 31.868376 -16.496195 -8.530811 10.399525 -8.703412 -14.477643 -2.568943 -27.178577 7.938254 -3.304780 -0.850152 29.274868 -13.460532 -23.195826 8.184477 -45.798233 -5.430470 -77.592407 -139.230942 -46.799595 -133.776245 -7.655578 17.956406 -55.212330 12.118857 -1.527025 1.667992 8.044358 13.893221 32.154499 16.601442 -18.118715 -3.758502 -9.330310 21.510172 10.059772 -43.757511 66.417809 50.235161 83.422249 10.718027 -0.005716 42.861172 -26.184826 24.848988 -33.690022 -22.325638 -21.654118 61.711033 -1.163134 -0.102159 15.595735 4.791088 8.286198 
-9.482808 4.585022 15.700528 89.996109 18.005964 129.986893 32.201641 -16.496214 -8.530684 10.399525 -8.703412 -14.477643 -3.013576 -27.178705 7.938308 -3.693821 -0.850209 29.274981 -13.528780 -23.420479 8.252645 -45.525139 -5.484263 -77.660988 -138.755386 -46.887901 -133.426865 -7.976909 18.151005 -55.207260 11.797791 -1.490869 1.692560 8.044358 13.893221 32.154495 16.601442 -18.118715 -3.758502 -9.330309 21.510170 10.059771 -43.757511 66.417809 50.235161 83.422249 10.718026 -0.005715 42.861172 -26.184824 24.848986 -33.613033 -22.464790 -21.933125 61.711033 -1.163134 -0.102159 15.581486 4.993918 8.061120 
-9.482808 4.585022 15.700528 89.996109 18.005964 129.986893 32.534924 -16.496235 -8.530556 10.399524 -8.703412 -14.477641 -3.458263 -27.178825 7.938362 -4.082898 -0.850265 29.275080 -13.596857 -23.645218 8.320640 -45.251942 -5.537739 -77.729828 -138.278244 -46.974220 -133.075790 -8.298611 18.345642 -55.203335 11.476688 -1.454849 1.717330 8.044358 13.893221 32.154495 16.601442 -18.118715 -3.758502 -9.330308 21.510168 10.059771 -43.757500 66.417809 50.235165 83.422249 10.718026 -0.005715 42.861172 -26.184824 24.848984 -33.535229 -22.603600 -22.212635 61.711033 -1.163134 -0.102159 15.568042 5.196817 7.836013 
